<svg xmlns="http://www.w3.org/2000/svg" width="200" height="200" viewBox="0 0 52.917 52.917"><g style="display:inline"><path d="M25.813.017A25.797 25.797 0 0 0 .017 25.813 25.797 25.797 0 0 0 25.813 51.61 25.797 25.797 0 0 0 51.61 25.813 25.797 25.797 0 0 0 25.813.017zm0 23.217a2.58 2.58 0 0 1 2.58 2.58 2.58 2.58 0 0 1-2.58 2.58 2.58 2.58 0 0 1-2.58-2.58 2.58 2.58 0 0 1 2.58-2.58z" style="fill:#999;stroke-width:.253135" transform="translate(-.017 -.017) scale(1.026)"/><path d="M25.813.661A25.152 25.152 0 0 0 .661 25.813a25.152 25.152 0 0 0 25.152 25.152 25.152 25.152 0 0 0 25.152-25.152A25.152 25.152 0 0 0 25.813.661zm0 22.573a2.58 2.58 0 0 1 2.58 2.58 2.58 2.58 0 0 1-2.58 2.58 2.58 2.58 0 0 1-2.58-2.58 2.58 2.58 0 0 1 2.58-2.58z" style="fill:#b3b3b3;stroke-width:.246806" transform="translate(-.017 -.017) scale(1.026)"/></g><path d="m35.134 31.3-22.74 4.311a2.646 2.646 0 0 1 .048.502h23.145a25.797 25.797 0 0 0-.453-4.812ZM7.157 36.114h-23.096a25.797 25.797 0 0 0 .4 4.792l22.741-4.31a2.646 2.646 0 0 1-.045-.482z" style="display:inline;fill:#ececec;stroke-width:.246611" transform="rotate(-35.4 2.984 5.147)"/><path d="M49.616 15.114 28.836 25.3a2.646 2.646 0 0 1 .252.88l22.96-2.495a25.797 25.797 0 0 0-.084-1.077 25.797 25.797 0 0 0-2.348-7.493zM23.834 26.75.865 29.246a25.797 25.797 0 0 0 .085 1.078 25.797 25.797 0 0 0 2.371 7.48l20.766-10.177a2.646 2.646 0 0 1-.253-.877Z" style="display:inline;fill:#ececec;stroke-width:.246611" transform="rotate(-5.5 26.458 26.45)"/><path d="M26.458 15.61A10.848 10.848 0 0 0 15.61 26.458a10.848 10.848 0 0 0 10.848 10.848 10.848 10.848 0 0 0 10.848-10.848A10.848 10.848 0 0 0 26.458 15.61Zm0 .265a10.583 10.583 0 0 1 10.584 10.583 10.583 10.583 0 0 1-10.584 10.584 10.583 10.583 0 0 1-10.583-10.584 10.583 10.583 0 0 1 10.583-10.583Z" style="display:inline;fill:#b3b3b3;stroke-width:.243878"/><path d="M26.458 14.817a11.642 11.642 0 0 0-11.641 11.641A11.642 11.642 0 0 0 26.458 38.1 11.642 11.642 0 0 0 38.1 26.458a11.642 11.642 0 0 0-11.642-11.641Zm0 .264a11.377 11.377 0 0 1 11.377 11.377 11.377 11.377 0 0 1-11.377 11.377 11.377 11.377 0 0 1-11.377-11.377 11.377 11.377 0 0 1 11.377-11.377Z" style="display:inline;fill:#b3b3b3;stroke-width:.261723"/><path d="M26.458 14.023a12.435 12.435 0 0 0-12.435 12.435 12.435 12.435 0 0 0 12.435 12.436 12.435 12.435 0 0 0 12.436-12.436 12.435 12.435 0 0 0-12.436-12.435Zm0 .264A12.17 12.17 0 0 1 38.63 26.459 12.17 12.17 0 0 1 26.46 38.63a12.17 12.17 0 0 1-12.171-12.17 12.17 12.17 0 0 1 12.17-12.171Z" style="display:inline;fill:#b3b3b3;stroke-width:.19562"/><path d="M26.458 19.182a7.276 7.276 0 0 0-7.276 7.276 7.276 7.276 0 0 0 7.276 7.276 7.276 7.276 0 0 0 7.276-7.276 7.276 7.276 0 0 0-7.276-7.276zm0 4.63a2.646 2.646 0 0 1 2.646 2.646 2.646 2.646 0 0 1-2.646 2.646 2.646 2.646 0 0 1-2.645-2.646 2.646 2.646 0 0 1 2.645-2.645z" style="display:inline;fill:#999;stroke-width:.239737"/><path d="M26.458 19.844a6.615 6.615 0 0 0-6.614 6.614 6.615 6.615 0 0 0 6.614 6.615 6.615 6.615 0 0 0 6.615-6.615 6.615 6.615 0 0 0-6.615-6.614zm0 3.968a2.646 2.646 0 0 1 2.646 2.646 2.646 2.646 0 0 1-2.646 2.646 2.646 2.646 0 0 1-2.645-2.646 2.646 2.646 0 0 1 2.645-2.645Z" style="display:inline;fill:#e6e6e6;stroke-width:.159434"/><path d="M26.458 23.151a3.307 3.307 0 0 0-3.307 3.307 3.307 3.307 0 0 0 3.307 3.308 3.307 3.307 0 0 0 3.308-3.308 3.307 3.307 0 0 0-3.308-3.307zm0 .662a2.646 2.646 0 0 1 2.646 2.645 2.646 2.646 0 0 1-2.646 2.646 2.646 2.646 0 0 1-2.645-2.646 2.646 2.646 0 0 1 2.645-2.645Z" style="display:inline;fill:#999;stroke-width:.185592"/></svg>