<?xml version="1.0" encoding="UTF-8" standalone="no"?>
<!-- Created with Inkscape (http://www.inkscape.org/) -->

<svg
   width="200"
   height="200"
   viewBox="0 0 52.916665 52.916666"
   version="1.1"
   id="svg1"
   inkscape:version="1.4 (e7c3feb100, 2024-10-09)"
   sodipodi:docname="albumPlaceholder.svg"
   xmlns:inkscape="http://www.inkscape.org/namespaces/inkscape"
   xmlns:sodipodi="http://sodipodi.sourceforge.net/DTD/sodipodi-0.dtd"
   xmlns="http://www.w3.org/2000/svg"
   xmlns:svg="http://www.w3.org/2000/svg">
  <sodipodi:namedview
     id="namedview1"
     pagecolor="#ffffff"
     bordercolor="#000000"
     borderopacity="0.25"
     inkscape:showpageshadow="2"
     inkscape:pageopacity="0.0"
     inkscape:pagecheckerboard="0"
     inkscape:deskcolor="#d1d1d1"
     inkscape:document-units="mm"
     inkscape:zoom="3.4889966"
     inkscape:cx="124.53437"
     inkscape:cy="106.62091"
     inkscape:window-width="1735"
     inkscape:window-height="1129"
     inkscape:window-x="0"
     inkscape:window-y="0"
     inkscape:window-maximized="1"
     inkscape:current-layer="g57" />
  <defs
     id="defs1" />
  <g
     inkscape:label="Layer 1"
     inkscape:groupmode="layer"
     id="layer1">
    <g
       id="g8"
       style="display:inline"
       transform="matrix(1.025641,0,0,1.025641,-0.01696007,-0.01696007)">
      <circle
         style="fill:#999999;stroke-width:0.253135"
         id="path1-5"
         cx="25.813412"
         cy="25.813412"
         r="25.796875" />
      <circle
         style="fill:#b3b3b3;stroke-width:0.246806"
         id="path1"
         cx="25.813412"
         cy="25.813412"
         r="25.151955" />
    </g>
    <g
       id="g57">
      <g
         id="g56"
         style="display:inline"
         transform="rotate(-5.536164,26.458334,26.450324)">
        <path
           id="rect56-2"
           style="fill:#ececec;stroke-width:0.246611"
           inkscape:transform-center-x="-17.150184"
           inkscape:transform-center-y="-12.991598"
           d="m 35.13403,31.300935 -25.3873961,4.81188 25.8402971,1.43e-4 A 25.796875,25.796875 0 0 0 35.13403,31.300935 Z m -25.3873961,4.81188 -25.6854389,-1.3e-4 a 25.796875,25.796875 0 0 0 0.400303,4.792597 z"
           transform="rotate(-29.820521)" />
        <path
           id="rect56-2-3"
           style="fill:#ececec;stroke-width:0.246611"
           inkscape:transform-center-x="-20.919401"
           inkscape:transform-center-y="-5.033764"
           d="m 49.61614,15.11429 -23.159234,11.350761 25.591797,-2.78101 a 25.796876,25.796876 0 0 0 -0.0851,-1.077361 25.796876,25.796876 0 0 0 -2.347465,-7.49239 z M 26.456906,26.465051 0.86510871,29.246062 a 25.796876,25.796876 0 0 0 0.0850975,1.077361 25.796876,25.796876 0 0 0 2.37083249,7.481016 z" />
      </g>
      <path
         id="path56-5"
         style="fill:#b3b3b3;stroke-width:0.243878"
         d="M 26.458333 15.610417 A 10.847917 10.847917 0 0 0 15.610417 26.458333 A 10.847917 10.847917 0 0 0 26.458333 37.30625 A 10.847917 10.847917 0 0 0 37.30625 26.458333 A 10.847917 10.847917 0 0 0 26.458333 15.610417 z M 26.458333 15.875 A 10.583333 10.583333 0 0 1 37.041667 26.458333 A 10.583333 10.583333 0 0 1 26.458333 37.041667 A 10.583333 10.583333 0 0 1 15.875 26.458333 A 10.583333 10.583333 0 0 1 26.458333 15.875 z " />
      <path
         id="path56-5-4"
         style="fill:#b3b3b3;stroke-width:0.261723"
         d="M 26.458333 14.816667 A 11.641666 11.641666 0 0 0 14.816667 26.458333 A 11.641666 11.641666 0 0 0 26.458333 38.1 A 11.641666 11.641666 0 0 0 38.1 26.458333 A 11.641666 11.641666 0 0 0 26.458333 14.816667 z M 26.458333 15.08125 A 11.377084 11.377084 0 0 1 37.835417 26.458333 A 11.377084 11.377084 0 0 1 26.458333 37.835417 A 11.377084 11.377084 0 0 1 15.08125 26.458333 A 11.377084 11.377084 0 0 1 26.458333 15.08125 z " />
      <path
         id="path78"
         style="fill:#b3b3b3;stroke-width:0.19562"
         d="M 26.458333 14.022917 A 12.435416 12.435416 0 0 0 14.022917 26.458333 A 12.435416 12.435416 0 0 0 26.458333 38.89375 A 12.435416 12.435416 0 0 0 38.89375 26.458333 A 12.435416 12.435416 0 0 0 26.458333 14.022917 z M 26.458333 14.2875 A 12.170834 12.170834 0 0 1 38.629167 26.458333 A 12.170834 12.170834 0 0 1 26.458333 38.629167 A 12.170834 12.170834 0 0 1 14.2875 26.458333 A 12.170834 12.170834 0 0 1 26.458333 14.2875 z " />
    </g>
    <g
       id="g7"
       style="display:inline">
      <g
         id="g5">
        <circle
           style="fill:#999999;stroke-width:0.239737"
           id="path4"
           cx="26.458334"
           cy="26.458334"
           r="7.2760415" />
        <circle
           style="fill:#e6e6e6;stroke-width:0.159434"
           id="path5"
           cx="26.458334"
           cy="26.458334"
           r="6.6145835" />
      </g>
      <g
         id="g6">
        <circle
           style="fill:#999999;stroke-width:0.185592"
           id="path3"
           cx="26.458334"
           cy="26.458334"
           r="3.3072917" />
        <circle
           style="fill:#ffffff;stroke-width:0.25006"
           id="path2"
           cx="26.458334"
           cy="26.458334"
           r="2.6458333" />
      </g>
    </g>
  </g>
</svg>
